<?xml version="1.0" standalone="no"?><!DOCTYPE svg PUBLIC "-//W3C//DTD SVG 1.1//EN" "http://www.w3.org/Graphics/SVG/1.1/DTD/svg11.dtd"><svg class="icon" width="200px" height="165.56px" viewBox="0 0 1237 1024" version="1.1" xmlns="http://www.w3.org/2000/svg"><path d="M76.987901 786.882434h1083.199858a73.009376 73.009376 0 0 0 54.28793-23.11395 80.515013 80.515013 0 0 0 0-112.030158 73.009376 73.009376 0 0 0-54.28793-23.11395h-6.865952a540.70437 540.70437 0 0 0-126.401747-282.143711 524.200498 524.200498 0 0 0-255.575463-167.298939v-1.407307a97.615924 97.615924 0 0 0 2.729323-20.981666 155.102279 155.102279 0 0 0-155.272862-156.808105 147.340768 147.340768 0 0 0-109.25819 45.502923 153.012641 153.012641 0 0 0-44.65001 111.305182c0 4.904251 0.682331 11.89814 1.364661 22.388973a524.243144 524.243144 0 0 0-255.575462 167.298939 543.646921 543.646921 0 0 0-126.401747 282.143711H76.987901a72.497628 72.497628 0 0 0-29.553445 6.311558 77.870982 77.870982 0 0 0-24.734485 16.802392 79.576808 79.576808 0 0 0-16.503871 25.203587 80.429722 80.429722 0 0 0-6.183622 31.515145 75.781344 75.781344 0 0 0 22.687493 55.439363 73.009376 73.009376 0 0 0 54.28793 22.986013zM618.58783 78.410023a73.009376 73.009376 0 0 1 54.28793 23.11395 75.781344 75.781344 0 0 1 22.687493 55.439363v4.264566l-1.364661 1.407307a359.289716 359.289716 0 0 0-38.381098-4.264567c-13.049573-0.682331-25.587398-1.407307-37.101727-1.407306s-24.052154 0.682331-37.101727 1.407306a359.289716 359.289716 0 0 0-38.381098 4.264567l-1.364661-1.407307v-4.264566a75.781344 75.781344 0 0 1 22.687493-55.439363 73.009376 73.009376 0 0 1 54.032056-23.071304zM292.902896 499.834472a394.387098 394.387098 0 0 1 94.11898-106.61416 359.289716 359.289716 0 0 1 127.126724-64.394952 15.949478 15.949478 0 0 1 5.50129-1.407307 29.851965 29.851965 0 0 1 6.865952-1.407307 38.381097 38.381097 0 0 1 28.188784 11.898141 40.044278 40.044278 0 0 1 11.684912 28.700531 41.494231 41.494231 0 0 1-4.264567 18.209699 38.381097 38.381097 0 0 1-11.684912 13.987777 35.609129 35.609129 0 0 1-15.821541 6.993889 326.367264 326.367264 0 0 0-69.384495 30.107839 307.645818 307.645818 0 0 0-59.106889 44.820592 324.362918 324.362918 0 0 0-46.014672 56.718733 39.788404 39.788404 0 0 1-8.230613 12.793699 38.978137 38.978137 0 0 1-12.367242 8.529133 40.214861 40.214861 0 0 1-42.645664-8.529133 37.826704 37.826704 0 0 1-11.002581-28.018201 36.078231 36.078231 0 0 1 6.865952-22.388973zM1160.187759 865.393101H76.987901a73.009376 73.009376 0 0 0-54.28793 23.113949 80.515013 80.515013 0 0 0 0 112.030159 73.009376 73.009376 0 0 0 54.28793 23.113949h1083.199858a73.009376 73.009376 0 0 0 54.28793-23.113949 80.515013 80.515013 0 0 0 0-112.030159 73.009376 73.009376 0 0 0-54.28793-23.113949zM76.987901 786.541268h1083.199858a73.052022 73.052022 0 0 0 54.28793-23.071304 80.429722 80.429722 0 0 0 0-111.944867 73.052022 73.052022 0 0 0-54.28793-23.071304h-6.865952a540.320559 540.320559 0 0 0-126.401747-281.973128 524.243144 524.243144 0 0 0-255.575463-167.256293v-1.407307a97.487987 97.487987 0 0 0 2.729323-20.981666A155.059633 155.059633 0 0 0 618.801058 0.112585a147.383414 147.383414 0 0 0-109.25819 45.502923 152.92735 152.92735 0 0 0-44.65001 111.262536c0 4.904251 0.682331 11.89814 1.364661 22.388974a524.243144 524.243144 0 0 0-255.575462 167.256293 543.26311 543.26311 0 0 0-126.401747 281.973128H76.987901a72.497628 72.497628 0 0 0-29.553445 6.311558 77.870982 77.870982 0 0 0-24.734485 16.802392 79.534163 79.534163 0 0 0-16.503871 25.203587 80.34443 80.34443 0 0 0-6.183622 31.4725 75.738699 75.738699 0 0 0 22.687493 55.439362 73.052022 73.052022 0 0 0 54.28793 22.81543z m541.599929-707.918017a73.052022 73.052022 0 0 1 54.28793 23.071304 75.738699 75.738699 0 0 1 22.687493 55.439363v4.264567l-1.364661 1.407306a359.460299 359.460299 0 0 0-38.381098-4.264566c-13.049573-0.682331-25.587398-1.407307-37.101727-1.407307s-24.052154 0.682331-37.101727 1.407307a359.417653 359.417653 0 0 0-38.381098 4.264566l-1.364661-1.407306v-4.264567a75.738699 75.738699 0 0 1 22.687493-55.439363 73.052022 73.052022 0 0 1 54.032056-23.284532z m-325.684934 421.253866A394.259161 394.259161 0 0 1 387.021876 393.518832a359.375008 359.375008 0 0 1 127.126724-64.394952 15.949478 15.949478 0 0 1 5.50129-1.407307 29.851965 29.851965 0 0 1 6.865952-1.407307 38.381097 38.381097 0 0 1 28.188784 11.89814 40.001633 40.001633 0 0 1 11.684912 28.700532 41.451585 41.451585 0 0 1-4.264567 18.209698 38.381097 38.381097 0 0 1-11.684912 13.987778 35.609129 35.609129 0 0 1-15.821541 6.993889 326.452555 326.452555 0 0 0-69.384495 30.107838 307.603172 307.603172 0 0 0-59.106889 44.777947 324.107044 324.107044 0 0 0-46.014672 56.676087 39.788404 39.788404 0 0 1-8.230613 12.793699 38.978137 38.978137 0 0 1-12.367242 8.529133 40.257507 40.257507 0 0 1-42.645664-8.529133 37.826704 37.826704 0 0 1-11.002581-27.975555 36.035586 36.035586 0 0 1 6.865952-22.388973z" /></svg>
