<?xml version="1.0" standalone="no"?><!DOCTYPE svg PUBLIC "-//W3C//DTD SVG 1.1//EN" "http://www.w3.org/Graphics/SVG/1.1/DTD/svg11.dtd"><svg class="icon" width="200px" height="200.00px" viewBox="0 0 1024 1024" version="1.1" xmlns="http://www.w3.org/2000/svg"><path d="M332.084385 681.382542a52.714129 52.714129 0 0 0 74.511739 0l577.222153-576.880804a52.860422 52.860422 0 0 0 0-74.706795 52.665365 52.665365 0 0 0-74.511739 0l-576.880803 576.880803a52.860422 52.860422 0 0 0-0.34135 74.706796z"  /><path d="M970.408115 431.12453a53.64065 53.64065 0 0 0-53.64065 53.640649v431.514644H107.817706V107.622649h431.417115a53.64065 53.64065 0 0 0 53.640649-53.933235 53.64065 53.64065 0 0 0-53.640649-53.64065H53.64065A53.64065 53.64065 0 0 0 0 53.591885v916.767465a54.274585 54.274585 0 0 0 15.79961 38.036097 53.2993 53.2993 0 0 0 37.84104 15.507025h916.767465a54.274585 54.274585 0 0 0 38.036097-15.79961 53.64065 53.64065 0 0 0 15.604552-37.743512V484.813944a53.64065 53.64065 0 0 0-53.640649-53.689414z"  /></svg>
