<?xml version="1.0" standalone="no"?><!DOCTYPE svg PUBLIC "-//W3C//DTD SVG 1.1//EN"
  "http://www.w3.org/Graphics/SVG/1.1/DTD/svg11.dtd">
<svg t="1604993609863" class="icon" viewBox="0 0 1025 1024" version="1.1" xmlns="http://www.w3.org/2000/svg" p-id="4263"
     xmlns:xlink="http://www.w3.org/1999/xlink" width="200.1953125" height="200">
  <defs>
    <style type="text/css"></style>
  </defs>
  <path
    d="M708.087101 467.20981c-1.595959-6.982321-2.154545-14.483328-4.26919-21.465648a153.251961 153.251961 0 0 0-118.539853-113.193391c-7.501007-2.154545-15.002014-2.154545-21.984335-4.827776h140.404491c3.750504 0 4.26919 0.518687 4.26919 4.309089z"
    p-id="4264"></path>
  <path
    d="M1024.565767 156.596293a647.161367 647.161367 0 0 0-62.2424 59.010584c-11.251511 10.732824-21.984335 22.542921-35.909077 37.026248-7.501007-94.400974-60.606542-138.928229-148.583781-149.142367 15.95959-31.639887 31.1212-61.165128 45.604528-91.209056 3.750504-7.979795 40.218166-11.969692 42.372711-11.969692a91.089359 91.089359 0 0 1 12.887369 0.518687A148.384286 148.384286 0 0 1 1000.426888 88.289249c10.174239 18.233831 15.002014 39.140894 24.138879 57.933311z m-270.355451-11.251511a106.370666 106.370666 0 0 1 97.632791 55.26008 306.065034 306.065034 0 0 1 13.964641 30.043928 76.725728 76.725728 0 0 1-20.388376 97.074205c-101.383294 96.036832-198.457499 196.86154-297.167563 296.09029a25.176253 25.176253 0 0 1-28.966655 7.501007 193.39033 193.39033 0 0 1-126.599446-133.023181 15.95959 15.95959 0 0 1 4.309089-17.156559q164.144381-164.144381 328.288762-329.366035c9.655552-9.136865 20.907063-3.750504 28.966656-6.423735zM337.944314 536.953218l144.833278 144.833277H350.831683c-6.982321 0-12.887369 0.518687-12.887369-9.655552 0.518687-44.008569 0-88.535825 0-135.177725z"
    p-id="4265"></path>
  <path
    d="M535.444238 763.3001h-283.282719v-269.278179l391.608435-391.608435H94.400974A94.56057 94.56057 0 0 0 0 196.81446v732.744667a94.56057 94.56057 0 0 0 94.400974 94.400974h732.784566a94.56057 94.56057 0 0 0 94.400974-94.400974V376.519441z"
    p-id="4266"></path>
</svg>
