<?xml version="1.0" standalone="no"?><!DOCTYPE svg PUBLIC "-//W3C//DTD SVG 1.1//EN" "http://www.w3.org/Graphics/SVG/1.1/DTD/svg11.dtd"><svg t="1614580949063" class="icon" viewBox="0 0 1024 1024" version="1.1" xmlns="http://www.w3.org/2000/svg" p-id="2115" xmlns:xlink="http://www.w3.org/1999/xlink" width="200" height="200"><defs><style type="text/css"></style></defs><path d="M682.791936 88.54528c-17.860608 0-32.299008 14.180352-32.299008 31.555584l0 776.881152c0 17.434624 14.4384 31.54944 32.299008 31.54944 17.828864 0 32.27136-14.114816 32.27136-31.54944L715.063296 120.100864C715.062272 102.725632 700.6208 88.54528 682.791936 88.54528zM770.610176 106.543104c-7.805952 0-14.168064 6.218752-14.168064 13.81888l0 776.321024c0 7.638016 6.362112 13.856768 14.168064 13.856768 7.749632 0 14.108672-6.218752 14.108672-13.856768L784.718848 120.361984C784.718848 112.761856 778.359808 106.543104 770.610176 106.543104zM845.897728 106.543104c-7.749632 0-14.081024 6.218752-14.081024 13.81888l0 776.321024c0 7.638016 6.331392 13.856768 14.081024 13.856768 7.815168 0 14.13632-6.218752 14.13632-13.856768L860.034048 120.361984C860.034048 112.761856 853.712896 106.543104 845.897728 106.543104zM931.632128 88.54528c-17.83296 0-32.305152 14.180352-32.305152 31.555584l0 776.881152c0 17.434624 14.472192 31.54944 32.305152 31.54944 17.860608 0 32.299008-14.114816 32.299008-31.54944L963.931136 120.100864C963.931136 102.725632 949.492736 88.54528 931.632128 88.54528zM532.671488 89.438208 412.189696 89.316352c-31.816704 0-57.637888 25.1904-57.669632 56.409088l-0.392192 723.915776c0 31.045632 25.759744 56.402944 57.634816 56.434688l120.4224 0.059392c31.909888 0 57.762816-25.274368 57.762816-56.347648l0.36352-723.915776C590.42816 114.740224 564.578304 89.438208 532.671488 89.438208zM521.16992 360.229888l-97.779712-0.120832c-11.109376 0-20.221952-8.879104-20.221952-19.739648 0.059392-10.916864 9.112576-19.764224 20.281344-19.764224l97.779712 0.083968c11.109376 0 20.194304 8.879104 20.194304 19.770368C541.391872 351.320064 532.338688 360.229888 521.16992 360.229888zM521.28768 276.001792l-97.77664-0.03072c-11.112448-0.05632-20.221952-8.90368-20.221952-19.764224 0-10.950656 9.109504-19.770368 20.221952-19.770368l97.77664 0.062464c11.112448 0 20.194304 8.900608 20.194304 19.764224C541.422592 267.122688 532.401152 276.001792 521.28768 276.001792zM240.270336 89.438208 119.907328 89.316352c-31.873024 0-57.729024 25.1904-57.787392 56.409088l-0.30208 723.915776c-0.090112 31.045632 25.731072 56.402944 57.576448 56.434688l120.363008 0.059392c31.906816 0 57.790464-25.274368 57.852928-56.347648l0.299008-723.915776C297.970688 114.740224 272.177152 89.438208 240.270336 89.438208zM228.887552 360.229888l-97.808384-0.120832c-11.106304 0-20.221952-8.879104-20.221952-19.739648 0.062464-10.916864 9.115648-19.764224 20.252672-19.764224l97.811456 0.083968c11.109376 0 20.159488 8.879104 20.159488 19.770368C249.080832 351.320064 240 360.229888 228.887552 360.229888zM228.887552 276.001792l-97.718272-0.03072c-11.109376-0.05632-20.190208-8.90368-20.190208-19.764224 0-10.950656 9.080832-19.770368 20.190208-19.770368l97.718272 0.062464c11.144192 0 20.19328 8.900608 20.19328 19.764224C249.080832 267.122688 240 276.001792 228.887552 276.001792z" p-id="2116"></path></svg>