<?xml version="1.0" standalone="no"?><!DOCTYPE svg PUBLIC "-//W3C//DTD SVG 1.1//EN" "http://www.w3.org/Graphics/SVG/1.1/DTD/svg11.dtd"><svg class="icon" width="200px" height="200.00px" viewBox="0 0 1024 1024" version="1.1" xmlns="http://www.w3.org/2000/svg"><path d="M963.728447 0.193435H799.604727L387.409568 0.786134 60.078118 0.193435A55.282645 55.282645 0 0 0 0 48.686984v926.550059a55.336527 55.336527 0 0 0 60.078118 48.493548h579.282373a67.944849 67.944849 0 0 0 42.782086-14.494182l324.367955-267.953795a44.721828 44.721828 0 0 0 17.296033-34.214892V48.90251a55.282645 55.282645 0 0 0-60.078118-48.709075zM119.940709 195.945725h782.955276v48.816838H119.886827z m0 202.271977h782.955276v48.493548H119.886827z m843.464447 284.603246h-361.330815v292.146687h-59.862591v-312.513977a33.083376 33.083376 0 0 1 35.992989-29.257774h385.200417z"  /></svg>
