<?xml version="1.0" standalone="no"?><!DOCTYPE svg PUBLIC "-//W3C//DTD SVG 1.1//EN" "http://www.w3.org/Graphics/SVG/1.1/DTD/svg11.dtd"><svg class="icon" width="200px" height="200.00px" viewBox="0 0 1024 1024" version="1.1" xmlns="http://www.w3.org/2000/svg"><path d="M257.154098 238.877377h454.127213v67.147541H257.154098z m0 174.83541h454.127213v67.147541H257.154098z m0 178.024918h201.820328v67.147541H257.154098z"  /><path d="M443.026885 940.904918H122.313443V83.011148h731.992131v406.326557a36.59541 36.59541 0 1 0 73.190819 0V83.011148A73.988197 73.988197 0 0 0 854.305574 8.393443H122.313443A73.988197 73.988197 0 0 0 49.122623 83.011148V940.904918a73.988197 73.988197 0 0 0 73.19082 74.701639h320.713442a36.469508 36.469508 0 0 0 32.440656-18.381639 37.770492 37.770492 0 0 0 0-37.770492 36.469508 36.469508 0 0 0-32.440656-18.465574z"  /><path d="M962.748852 945.773115l-89.89377-91.572459a177.185574 177.185574 0 1 0-46.163934 48.891803l88.131147 89.851803a33.657705 33.657705 0 0 0 48.010492-47.213114z m-239.003278-76.590164a109.32459 109.32459 0 1 1 109.114754-109.32459 109.32459 109.32459 0 0 1-109.114754 109.32459z"  /></svg>
