<?xml version="1.0" standalone="no"?><!DOCTYPE svg PUBLIC "-//W3C//DTD SVG 1.1//EN" "http://www.w3.org/Graphics/SVG/1.1/DTD/svg11.dtd"><svg class="icon" width="200px" height="200.00px" viewBox="0 0 1024 1024" version="1.1" xmlns="http://www.w3.org/2000/svg"><path d="M859.978163 130.375767h88.172194L813.976929 0.032614v87.982576a46.039158 46.039158 0 0 0 46.001234 42.170959z m0 0M864.225598 212.252655a127.005882 127.005882 0 0 1-129.508835-126.588723V0.032614H163.398873A85.252082 85.252082 0 0 0 75.795532 85.663932v852.672516A85.252082 85.252082 0 0 0 163.398873 1023.967765h697.034373A85.252082 85.252082 0 0 0 948.036586 938.336448V212.252655zM414.793914 201.103139a155.827761 155.827761 0 0 1 110.433302-33.524395 165.422412 165.422412 0 0 1 91.433617 22.336955 107.854503 107.854503 0 0 1 49.528122 85.631318 73.761254 73.761254 0 0 1-11.377057 40.957406 197.505714 197.505714 0 0 1-49.528123 48.390417 135.576599 135.576599 0 0 0-34.131171 33.524395 73.078631 73.078631 0 0 0-7.584705 33.524395h-99.283786v-11.149516a100.686956 100.686956 0 0 1 26.546467-70.765296c7.584705-7.584705 26.546467-22.336956 53.320475-44.673911 15.16941-11.18744 22.754114-22.336956 22.754114-29.80789a31.059366 31.059366 0 0 0-7.584705-22.336956 56.050969 56.050969 0 0 0-26.546467-7.584705 43.80167 43.80167 0 0 0-30.338819 11.149516 58.781462 58.781462 0 0 0-15.16941 40.957406l-102.848597-11.187439a93.974493 93.974493 0 0 1 30.376743-85.4417z m148.546444 260.648381v93.102252h-106.64095v-93.102252z m179.036957 390.95361H304.246841a40.957406 40.957406 0 1 1 0-81.914812h438.016703a41.715877 41.715877 0 0 1 41.715877 40.957406 44.522217 44.522217 0 0 1-41.64003 40.957406z m0-130.305229H304.246841a40.957406 40.957406 0 1 1 0-81.914812h438.016703a40.957406 40.957406 0 1 1 0 81.914812z m0 0" /></svg>
