<?xml version="1.0" standalone="no"?><!DOCTYPE svg PUBLIC "-//W3C//DTD SVG 1.1//EN" "http://www.w3.org/Graphics/SVG/1.1/DTD/svg11.dtd"><svg class="icon" width="200px" height="149.82px" viewBox="0 0 1367 1024" version="1.1" xmlns="http://www.w3.org/2000/svg"><path d="M812.59417 770.516914c-73.630395-20.945842-157.072488-26.491585-215.388102-111.341443 0 0-29.86169-37.028495 37.54041-127.509415s73.374438-234.627562 56.267955-346.011665A217.179803 217.179803 0 0 0 479.081756 0a217.563739 217.563739 0 0 0-212.017997 185.654391c-17.063823 111.256124-11.475421 255.189468 56.267955 346.011665s37.625729 127.509415 37.625729 127.509415c-57.974338 83.996667-140.776537 90.139643-213.937677 110.914847a231.98267 231.98267 0 0 0-80.754541 37.668389c-84.935177 65.951675-63.989335 216.155974-63.989335 216.155974h953.654391s20.860523-150.204299-63.989335-216.027995a234.328945 234.328945 0 0 0-79.261457-37.241793zM1296.780139 807.886686a253.184469 253.184469 0 0 0-84.935177-36.729879c-79.85869-21.329778-263.081486-148.540577-191.413431-239.490751 72.521246-90.182303 78.792201-234.627562 60.405932-346.182303A228.484586 228.484586 0 0 0 853.547345 0.213298a232.281286 232.281286 0 0 0-133.012498 42.958173 306.380937 306.380937 0 0 1 52.172638 126.016331c12.157974 75.592735 29.605732 258.85819-61.472422 398.141643a49.911681 49.911681 0 0 0-13.352441 33.402433c0 29.86169 33.829028 47.693384 57.846359 53.409765l27.216797 6.313614c15.35744 4.265956 30.75754 7.038827 45.091152 11.091485a361.625062 361.625062 0 0 1 119.660056 53.239127c119.830695 87.025496 115.735377 246.870855 111.64006 298.958174h306.03966s22.524246-150.204299-68.596567-215.857357z" /></svg>
