<?xml version="1.0" standalone="no"?><!DOCTYPE svg PUBLIC "-//W3C//DTD SVG 1.1//EN" "http://www.w3.org/Graphics/SVG/1.1/DTD/svg11.dtd"><svg class="icon" width="200px" height="200.00px" viewBox="0 0 1024 1024" version="1.1" xmlns="http://www.w3.org/2000/svg"><path d="M0 0m122.88 0l778.24 0q122.88 0 122.88 122.88l0 778.24q0 122.88-122.88 122.88l-778.24 0q-122.88 0-122.88-122.88l0-778.24q0-122.88 122.88-122.88Z" /><path d="M567.0912 135.61856l87.94112 210.37056 287.08864 60.2112 17.08032 33.9968h-361.6768l-66.7648-185.5488z m-16.87552-53.6576l-119.84896 365.60896h-192.18432l-94.45376-82.86208 216.02304-13.9264 156.18048-268.82048z m-468.33664 291.75808l295.3216 217.088q6.06208-1.72032 0 42.68032-17.73568 116.65408-51.24096 145.53088l-99.328 79.50336 54.59968-225.03424-199.35232-219.70944z m430.36672 327.68l154.46016 109.07648 35.47136 109.07648-189.93152-109.07648-261.48864 127.30368-29.65504-18.2272z m410.33728-224.33792l-173.056 151.92064 33.1776 308.67456q-23.26528 27.52512-23.26528 19.94752t-116.61312-356.352l154.05056-124.23168z" fill="#009AA2" /></svg>
